<svg xmlns="http://www.w3.org/2000/svg" width="620" height="572" style="fill:#fff"><circle cx="130.95011" cy="46.58577" r="46.54521"/><path d="M124.505 388.155V549.99c-.243 29.402-44.01 29.402-44.397 0V388.154H22.822L84.405 171.9H74.38L38.576 295.065c-9.052 27.24-45.887 16.212-37.237-12.89l40.1-133.19c4.61-15.295 23.888-42.304 57.286-42.965H163.174c32.435.66 51.793 27.9 57.286 42.965l40.1 133.19c8.136 28.96-28.407 40.846-37.235 12.89L187.52 171.9h-11.457l63.016 216.255h-58.72V549.99c.458 29.402-43.137 29.258-42.965 0V388.154h-12.89z"/><circle cx="511.90545" cy="46.58577" r="46.54521"/><path d="M462.496 106.02c-35.79 0-58.72 30.988-58.72 61.583V310.82c-.328 27.983 39.967 27.983 40.102 0V179.06h10.025v363.77c-.622 37.98 53.047 36.89 52.99 0V330.87h8.593v211.96c.702 36.89 54.65 37.98 54.422 0V179.06h10.025v131.76c-.472 28.198 39.614 28.198 40.1 0V167.602c-.572-30.595-24.36-61.034-60.15-61.583h-97.387zM297.79 5.768h52.998v562.84H297.79z"/></svg>